<svg xmlns="http://www.w3.org/2000/svg" viewBox="0 0 99.96 100"><g id="Layer_2" data-name="Layer 2" style="fill:#ffffff"><g id="Layer_1-2" data-name="Layer 1"><path d="M49.2,100c-.13-.08-.26-.18-.39-.25a3,3,0,0,1-1.7-3.29,2.94,2.94,0,0,1,3-2.31,40.94,40.94,0,0,0,12.77-2C79.47,86.56,90,75.23,93.27,58c3.8-19.76-6-38.74-24.08-47.66a41.14,41.14,0,0,0-27-3.68c-18,3.66-29.81,14.42-34.79,32C3.66,52,6.26,64.58,14.28,75.94c.14.2.32.39.6.73l.93-5.2c.71-4,1.38-8.07,2.15-12.09a4.19,4.19,0,0,1,1.05-2Q37.8,38.49,56.67,19.67a2.91,2.91,0,0,1,4.48,0Q70.69,29.2,80.2,38.74c1.55,1.55,1.54,3.17,0,4.76Q67.52,56.16,54.84,68.82c-4,4-8,8-11.93,12a4.63,4.63,0,0,1-2.61,1.38q-11.34,2-22.66,4a3.4,3.4,0,0,1-3.28-1,49.48,49.48,0,0,1-14.19-31A7.73,7.73,0,0,0,0,53.15V46.9c.06-.28.12-.56.17-.85.39-2.53.61-5.11,1.2-7.59A50,50,0,1,1,58.59,99.24c-1.82.31-3.66.51-5.49.76Zm9.73-74L25.26,59.64,30.62,65,64.3,31.36ZM40.27,74.85,74,41.08l-5.31-5.32L35,69.53Zm-6.41,2.47L22.68,66.14,20.32,79.69Z"/></g></g></svg>