<svg xmlns="http://www.w3.org/2000/svg" viewBox="0 0 100.22 100"><title>nonelink</title><g id="Layer_2" style="fill:#ffffff" data-name="Layer 2"><g id="Layer_1-2" data-name="Layer 1"><path d="M26.75,100a26.65,26.65,0,0,0,18.91-7.79l14.8-14.79a26.53,26.53,0,0,0,7.45-15,7.88,7.88,0,0,0,3.22.67,8.72,8.72,0,0,0,6.23-2.56l15-14.9A26.74,26.74,0,0,0,54.56,7.79L39.66,22.58a26.48,26.48,0,0,0-7.46,15A7.88,7.88,0,0,0,29,36.93a8.74,8.74,0,0,0-6.23,2.56L7.84,54.28A26.81,26.81,0,0,0,26.75,100ZM65.91,47.16a25.92,25.92,0,0,0-5.34-7.67,8.76,8.76,0,0,0-6.23-2.56A9.64,9.64,0,0,0,50,38a9.41,9.41,0,0,1,2-3.11l14.8-14.8a9,9,0,0,1,6.56-2.67,9.63,9.63,0,0,1,6.56,2.67,9,9,0,0,1,2.67,6.57,9.65,9.65,0,0,1-2.67,6.56ZM43.55,26.47,58.34,11.68A21.57,21.57,0,0,1,73.47,5.45a21.19,21.19,0,0,1,15,36.15L73.58,56.51A3.22,3.22,0,1,1,69,52l14.8-14.8A14.79,14.79,0,1,0,62.9,16.24L48.11,31a14.78,14.78,0,0,0,0,20.92,3.22,3.22,0,1,1-4.56,4.56,21.36,21.36,0,0,1,0-30ZM34.32,52.73a25.56,25.56,0,0,0,5.34,7.67A8.72,8.72,0,0,0,45.88,63a9.73,9.73,0,0,0,4.34-1.11,9.25,9.25,0,0,1-2,3.11L33.32,79.75a9,9,0,0,1-6.57,2.67,9.65,9.65,0,0,1-6.56-2.67,9,9,0,0,1-2.67-6.56,9.63,9.63,0,0,1,2.67-6.56ZM11.85,58.29l14.79-14.8a3.36,3.36,0,0,1,2.23-.89,3.13,3.13,0,0,1,2.22.89,3.3,3.3,0,0,1,0,4.56L16.41,62.85A14.79,14.79,0,1,0,37.32,83.76L52.11,68.85a14.76,14.76,0,0,0,0-20.91,3.22,3.22,0,1,1,4.56-4.56,21.2,21.2,0,0,1,0,29.92L41.77,88.21A21.16,21.16,0,1,1,11.85,58.29Z"/><path d="M97.39,80.53H86.26V69.41a2.78,2.78,0,0,0-5.56,0V80.53H69.58a2.79,2.79,0,0,0,0,5.57H80.7V97.22a2.78,2.78,0,0,0,5.56,0V86.1H97.39a2.79,2.79,0,0,0,0-5.57Z"/></g></g></svg>