<svg xmlns="http://www.w3.org/2000/svg" viewBox="0 0 100 100"><title>noneexists</title><g id="Layer_2" data-name="Layer 2"><g id="Layer_1-2" data-name="Layer 1"><path d="M66.74,59.79l-2.57,3.15a46.44,46.44,0,0,0-4.33-2.5,9.09,9.09,0,0,0-9.15.44,3.12,3.12,0,0,0-.64.51c-2.06,2.35-4.18,4.68-4.51,8A7.7,7.7,0,0,0,49.69,77c1.39.75,2.77,1.54,4.14,2.33a10.51,10.51,0,0,1,1,.74c-.27,0-.41.1-.56.11a112.81,112.81,0,0,1-17.82-.48c-3.77-.42-7.53-1-10.94-2.85a13,13,0,0,1-2.61-1.93,5.13,5.13,0,0,1-1.44-3.18c-.62-4.3,1.63-7.11,4.77-9.49a46.58,46.58,0,0,1,12.17-6.44c2.73-1,3.61-3.29,2.74-5.9A2.92,2.92,0,0,0,40.6,49a25.84,25.84,0,0,1-6-20.77A13.1,13.1,0,0,1,41.28,18c6.63-3.68,15.72-1.69,19.27,5.38A18.16,18.16,0,0,1,62.38,32a26.83,26.83,0,0,1-5.07,15.5c-.27.38-.59.73-.89,1.09a5.38,5.38,0,0,0-.91,5.1,2.87,2.87,0,0,0,1.91,1.92c2.9,1.22,5.76,2.51,8.64,3.77C66.28,59.5,66.48,59.64,66.74,59.79Z"/><path d="M64.94,71.72c4.92-9.65,12.67-16,22.67-19.81-.82.67-1.65,1.33-2.46,2-7.52,6.29-12.67,14.24-16.36,23.23-.53,1.28-1.13,2.53-1.69,3.8a3.3,3.3,0,0,1-.27.53C65.9,83,64.58,83.2,63.28,82a6.94,6.94,0,0,1-.9-1.18A22.07,22.07,0,0,0,53.3,73c-.38-.18-.76-.36-1.13-.56a2.67,2.67,0,0,1-1-3.9c.58-.92,1.21-1.81,1.85-2.69a3.29,3.29,0,0,1,3.71-1,11.44,11.44,0,0,1,5.16,3.39C63,69.33,63.91,70.53,64.94,71.72Z"/><path d="M50,100a50,50,0,1,1,50-50A50.06,50.06,0,0,1,50,100ZM50,4.31A45.69,45.69,0,1,0,95.69,50,45.75,45.75,0,0,0,50,4.31Z"/></g></g></svg>