<svg xmlns="http://www.w3.org/2000/svg" viewBox="0 0 100.01 100"><title>noneall</title><g id="Layer_2" data-name="Layer 2"><g id="Layer_1-2" data-name="Layer 1"><path d="M45.9,100c-1.16-.19-2.32-.4-3.48-.58A48.76,48.76,0,0,1,21.49,91a6.05,6.05,0,0,0,5.8-4.34,17.7,17.7,0,0,0,.27-3.51c.11.06.23.11.34.18a39.6,39.6,0,0,0,29.64,5.93A40.17,40.17,0,0,0,90,51.22a39.65,39.65,0,0,0-6.19-22.61c-1.36-2.18-1.36-2.16-3.19-.41-.32.3-.94.7-1.18.58a1.8,1.8,0,0,1-.71-1.22c-.38-2.14-.68-4.3-1-6.45-.2-1.63-.36-3.26-.61-4.88-.33-2.1.49-2.85,2.6-2.49,1.8.31,3.64.47,5.46.7l2.91.49a2,2,0,0,1-.76,2c-.63.52-1.16,1.15-1.74,1.71a1,1,0,0,0-.12,1.53A52.19,52.19,0,0,1,91,29.6a49.53,49.53,0,0,1,3.77,27.9,48,48,0,0,1-5,15.27,64.58,64.58,0,0,1-5.1,7.91A45.36,45.36,0,0,1,76,89.47a49.67,49.67,0,0,1-11.21,6.58,46.76,46.76,0,0,1-12.12,3.37c-1.27.17-2.53.39-3.8.58Z"/><path d="M100,54.29c-.19,1.09-.4,2.18-.56,3.28A48.48,48.48,0,0,1,89.26,80.91a49.25,49.25,0,0,1-28.7,18c-2,.44-4.1.63-6.15.94a3.41,3.41,0,0,0-.5.19H48.83c1.27-.19,2.53-.41,3.8-.58a46.76,46.76,0,0,0,12.12-3.37A49.67,49.67,0,0,0,76,89.47a45.36,45.36,0,0,0,8.77-8.79,64.58,64.58,0,0,0,5.1-7.91,48,48,0,0,0,5-15.27A49.53,49.53,0,0,0,91,29.6a52.19,52.19,0,0,0-5.55-9.47,1,1,0,0,1,.12-1.53c.58-.56,1.11-1.19,1.74-1.71a2,2,0,0,0,.76-2c1.09.15,2.18.28,3.27.48s1.18.87.51,1.6c-.41.45-.87.87-1.3,1.31-1,1-1,1-.19,2.11a48,48,0,0,1,8.11,17.31c.61,2.58.9,5.23,1.34,7.84a2.7,2.7,0,0,0,.18.5Z"/><path d="M14.74,85.42c-2-.28-4-.54-6-.87A1.23,1.23,0,0,1,7.88,84a1.25,1.25,0,0,1,.33-1c.7-.77,1.47-1.47,2.29-2.27l-.57-.82A48.22,48.22,0,0,1,.09,47.62C1.17,29.74,9.65,16.12,24.92,6.81A48,48,0,0,1,47.48,0c.58,0,1.17,0,1.75,0a2.38,2.38,0,0,0,.45.15c2.73.44,5.51.72,8.2,1.34A47.74,47.74,0,0,1,71.75,7.26C73,8,74.18,8.9,75.35,9.7a21.44,21.44,0,0,0-1.9,2,6.52,6.52,0,0,0-1,5.08l-.83-.5a39.27,39.27,0,0,0-32.46-4.81A40,40,0,0,0,10,48.66a39.46,39.46,0,0,0,6.22,22.79c1.32,2.09,1.36,2.09,3.13.33,0,0,0-.06.07-.07.42-.18.93-.6,1.22-.47s.55.74.63,1.17c.36,2.14.66,4.3,1,6.45.21,1.8.41,3.59.65,5.38a1.7,1.7,0,0,1-2.05,2.06C18.83,86,16.79,85.71,14.74,85.42Z"/><path d="M72.45,16.82a6.52,6.52,0,0,1,1-5.08,21.44,21.44,0,0,1,1.9-2C74.18,8.9,73,8,71.75,7.26A47.74,47.74,0,0,0,57.88,1.51C55.19.89,52.41.61,49.68.17A2.38,2.38,0,0,1,49.23,0,48.71,48.71,0,0,1,76.75,7.7a43.48,43.48,0,0,1,8.43,6.74c-1.82-.23-3.66-.39-5.46-.7-2.11-.36-2.93.39-2.6,2.49.25,1.62.41,3.25.61,4.88Z"/><path d="M14.74,85.42c2,.29,4.09.57,6.13.88a1.7,1.7,0,0,0,2.05-2.06c-.24-1.79-.44-3.58-.65-5.38l5.29,4.3a17.7,17.7,0,0,1-.27,3.51A6.05,6.05,0,0,1,21.49,91Z"/><path d="M45.64,56.85a6,6,0,0,1-1.4,1.24,1.25,1.25,0,0,1-1.62-.73c-.31-.6-.46-1.28-.78-1.88a1.22,1.22,0,0,0-.81-.57q-2.34-.09-4.68,0a1.32,1.32,0,0,0-.87.63c-.31.52-.44,1.15-.71,1.7A1.48,1.48,0,0,1,32,56.12q2.46-6.57,5-13.1a1.72,1.72,0,0,1,1.72-1.2A1.68,1.68,0,0,1,40.37,43q2.51,6.54,5,13.1a4,4,0,0,1,.14.57Zm-8.79-5h3.66L38.68,47Z"/><path d="M63.47,55.11c1,0,1.91,0,2.81,0,1.14,0,1.88.66,1.85,1.57s-.74,1.47-1.84,1.48c-1.33,0-2.67,0-4,0s-1.87-.55-1.88-1.83q0-6.36,0-12.7c0-1.14.66-1.87,1.58-1.83s1.47.72,1.47,1.83q0,5.18,0,10.35Z"/><path d="M52.13,55.11c1,0,2,0,2.87,0a1.55,1.55,0,1,1,0,3.05c-1.36,0-2.73,0-4.1,0s-1.81-.57-1.81-1.79q0-6.41,0-12.8a1.57,1.57,0,0,1,1.53-1.77c.9,0,1.51.69,1.52,1.79,0,3.45,0,6.9,0,10.35Z"/></g></g></svg>